<svg width="36" height="36" viewBox="0 0 36 36" fill="none" xmlns="http://www.w3.org/2000/svg">
<path d="M17.5781 11.9805V18.957L23.0621 22.3005" stroke="#195AB4" stroke-width="1.5" stroke-linecap="round" stroke-linejoin="round"/>
<path d="M28.1445 26.8867C26.22 29.0812 23.6025 30.6517 20.625 31.2397" stroke="#195AB4" stroke-width="1.5" stroke-linecap="round" stroke-linejoin="round"/>
<path d="M7.85938 9.11081C9.78387 6.91631 12.4014 5.34581 15.3789 4.75781" stroke="#195AB4" stroke-width="1.5" stroke-linecap="round" stroke-linejoin="round"/>
<path d="M5.2275 22.3442C4.7625 20.9792 4.5 19.5212 4.5 18.0002C4.5 16.4792 4.7625 15.0213 5.2275 13.6562" stroke="#195AB4" stroke-width="1.5" stroke-linecap="round" stroke-linejoin="round"/>
<path d="M30.7734 22.3442C31.2384 20.9792 31.5009 19.5212 31.5009 18.0002C31.5009 16.4792 31.2384 15.0213 30.7734 13.6562" stroke="#195AB4" stroke-width="1.5" stroke-linecap="round" stroke-linejoin="round"/>
<path d="M7.85938 26.8867C9.78387 29.0812 12.4014 30.6517 15.3789 31.2397" stroke="#195AB4" stroke-width="1.5" stroke-linecap="round" stroke-linejoin="round"/>
<path d="M20.625 4.75781C23.6025 5.34431 26.2185 6.91481 28.1445 9.11081" stroke="#195AB4" stroke-width="1.5" stroke-linecap="round" stroke-linejoin="round"/>
</svg>
