<svg width="49" height="48" viewBox="0 0 49 48" fill="none" xmlns="http://www.w3.org/2000/svg">
<path fill-rule="evenodd" clip-rule="evenodd" d="M29.8524 32.9089C30.4552 32.7582 31.066 33.1246 31.2167 33.7274L33.2167 41.7274C33.3674 42.3302 33.0009 42.941 32.3981 43.0917C31.7954 43.2424 31.1846 42.8759 31.0339 42.2731L29.0339 34.2731C28.8832 33.6703 29.2496 33.0595 29.8524 32.9089Z" fill="#195AB4"/>
<path fill-rule="evenodd" clip-rule="evenodd" d="M18.3981 32.9089C19.0009 33.0595 19.3674 33.6703 19.2167 34.2731L17.2167 42.2731C17.066 42.8759 16.4552 43.2424 15.8524 43.0917C15.2496 42.941 14.8832 42.3302 15.0339 41.7274L17.0339 33.7274C17.1845 33.1246 17.7953 32.7582 18.3981 32.9089Z" fill="#195AB4"/>
<path fill-rule="evenodd" clip-rule="evenodd" d="M10.275 7.125C8.60432 7.125 7.25 8.47932 7.25 10.15V29.85C7.25 31.5207 8.60432 32.875 10.275 32.875H37.975C39.6453 32.875 41 31.521 41 29.848V10.15C41 8.47967 39.646 7.125 37.973 7.125H10.275ZM5 10.15C5 7.23668 7.36168 4.875 10.275 4.875H37.973C40.888 4.875 43.25 7.23633 43.25 10.15V29.848C43.25 32.763 40.8887 35.125 37.975 35.125H10.275C7.36168 35.125 5 32.7633 5 29.85V10.15Z" fill="#195AB4"/>
<path fill-rule="evenodd" clip-rule="evenodd" d="M15.125 19.4141C15.7463 19.4141 16.25 19.9177 16.25 20.5391V25.9991C16.25 26.6204 15.7463 27.1241 15.125 27.1241C14.5037 27.1241 14 26.6204 14 25.9991V20.5391C14 19.9177 14.5037 19.4141 15.125 19.4141Z" fill="#195AB4"/>
<path fill-rule="evenodd" clip-rule="evenodd" d="M21.125 12.875C21.7463 12.875 22.25 13.3787 22.25 14V26C22.25 26.6213 21.7463 27.125 21.125 27.125C20.5037 27.125 20 26.6213 20 26V14C20 13.3787 20.5037 12.875 21.125 12.875Z" fill="#195AB4"/>
<path fill-rule="evenodd" clip-rule="evenodd" d="M27.125 18.2344C27.7463 18.2344 28.25 18.7381 28.25 19.3594V25.9994C28.25 26.6207 27.7463 27.1244 27.125 27.1244C26.5037 27.1244 26 26.6207 26 25.9994V19.3594C26 18.7381 26.5037 18.2344 27.125 18.2344Z" fill="#195AB4"/>
<path fill-rule="evenodd" clip-rule="evenodd" d="M33.125 13.9766C33.7463 13.9766 34.25 14.4802 34.25 15.1016V26.0016C34.25 26.6229 33.7463 27.1266 33.125 27.1266C32.5037 27.1266 32 26.6229 32 26.0016V15.1016C32 14.4802 32.5037 13.9766 33.125 13.9766Z" fill="#195AB4"/>
</svg>
