<svg width="36" height="36" viewBox="0 0 36 36" fill="none" xmlns="http://www.w3.org/2000/svg">
<g clip-path="url(#clip0_10183_289124)">
<path d="M27.5745 12H29.166C30.456 12 31.5 13.044 31.5 14.334V29.1675C31.5 30.456 30.456 31.5 29.166 31.5H12.834C11.544 31.5 10.5 30.456 10.5 29.166V27" stroke="#195AB4" stroke-width="1.5" stroke-linecap="round" stroke-linejoin="round"/>
<path d="M6.00164 27H22.9696C23.9731 27 24.9091 26.499 25.4656 25.6635L26.5666 24.0105C27.2236 23.025 27.5746 21.867 27.5746 20.682V9C27.5746 7.3425 26.2321 6 24.5746 6H9.57464C7.91714 6 6.57464 7.3425 6.57464 9V19.584C6.57464 20.5155 6.35714 21.4335 5.94164 22.2675L4.66064 24.8295C4.16114 25.827 4.88714 27 6.00164 27V27Z" stroke="#195AB4" stroke-width="1.5" stroke-linecap="round" stroke-linejoin="round"/>
<path d="M20.4781 14.3906L16.2586 18.6101L13.7266 16.0796" stroke="#195AB4" stroke-width="1.5" stroke-linecap="round" stroke-linejoin="round"/>
<path d="M12.5703 4.5V7.5" stroke="#195AB4" stroke-width="1.5" stroke-linecap="round" stroke-linejoin="round"/>
<path d="M21.5703 4.5V7.5" stroke="#195AB4" stroke-width="1.5" stroke-linecap="round" stroke-linejoin="round"/>
</g>
<defs>
<clipPath id="clip0_10183_289124">
<rect width="36" height="36" fill="white"/>
</clipPath>
</defs>
</svg>
