<svg width="36" height="37" viewBox="0 0 36 37" fill="none" xmlns="http://www.w3.org/2000/svg">
<path d="M27.6105 21.692C28.1805 20.2955 28.5 18.77 28.5 17.168C28.5 10.541 23.127 5.16797 16.5 5.16797C9.873 5.16797 4.5 10.541 4.5 17.168C4.5 23.795 9.873 29.168 16.5 29.168C18.102 29.168 19.629 28.8485 21.027 28.2785" stroke="#195AB4" stroke-width="1.5" stroke-linecap="round" stroke-linejoin="round"/>
<path d="M16.5 12.8657V11.9102" stroke="#195AB4" stroke-width="1.5" stroke-linecap="round" stroke-linejoin="round"/>
<path d="M16.5 21.457V22.411" stroke="#195AB4" stroke-width="1.5" stroke-linecap="round" stroke-linejoin="round"/>
<path d="M14.0123 20.4323C14.3828 21.0398 15.0158 21.4583 15.7823 21.4583H16.4978H17.3513C18.4628 21.4583 19.3613 20.5583 19.3613 19.4483C19.3613 18.5258 18.7328 17.7233 17.8388 17.4968L15.1538 16.8218C14.2613 16.5983 13.6328 15.7958 13.6328 14.8733C13.6328 13.7618 14.5328 12.8633 15.6428 12.8633H16.4978H17.2133C17.9768 12.8633 18.6098 13.2818 18.9788 13.8878" stroke="#195AB4" stroke-width="1.5" stroke-linecap="round" stroke-linejoin="round"/>
<path d="M27 21.668C30.3135 21.668 33 24.3545 33 27.668C33 30.9815 30.3135 33.668 27 33.668C23.6865 33.668 21 30.9815 21 27.668C21 24.3545 23.6865 21.668 27 21.668Z" stroke="#195AB4" stroke-width="1.5" stroke-linecap="round" stroke-linejoin="round"/>
<path d="M25.0234 27.8633H29.0434" stroke="#195AB4" stroke-width="1.5" stroke-linecap="round" stroke-linejoin="round"/>
<path d="M27.0312 29.8755V25.8555" stroke="#195AB4" stroke-width="1.5" stroke-linecap="round" stroke-linejoin="round"/>
</svg>
