<svg width="38" height="37" viewBox="0 0 38 37" fill="none" xmlns="http://www.w3.org/2000/svg">
<path d="M15.8438 21.8182L22.1464 15.5156" stroke="#195AB4" stroke-width="1.5" stroke-linecap="round" stroke-linejoin="round"/>
<path d="M22.4344 21.5975C22.5754 21.7386 22.5754 21.9667 22.4344 22.1062C22.2933 22.2473 22.0652 22.2473 21.9256 22.1062C21.7846 21.9652 21.7846 21.7371 21.9256 21.5975C22.0652 21.4565 22.2933 21.4565 22.4344 21.5975" stroke="#195AB4" stroke-width="1.5" stroke-linecap="round" stroke-linejoin="round"/>
<path d="M16.0669 15.2261C16.2079 15.3672 16.2079 15.5953 16.0669 15.7349C15.9258 15.8759 15.6977 15.8759 15.5582 15.7349C15.4186 15.5938 15.4171 15.3657 15.5582 15.2261C15.6992 15.0866 15.9273 15.0851 16.0669 15.2261" stroke="#195AB4" stroke-width="1.5" stroke-linecap="round" stroke-linejoin="round"/>
<path fill-rule="evenodd" clip-rule="evenodd" d="M6.99219 7.82827V29.9205C6.99219 31.0354 8.16568 31.7617 9.16359 31.262L10.3206 30.6828C10.7438 30.4712 11.2405 30.4712 11.6621 30.6828L14.3227 32.0123C14.7444 32.2239 15.2426 32.2239 15.6643 32.0123L18.3249 30.6828C18.7466 30.4712 19.2448 30.4712 19.6665 30.6828L22.3271 32.0123C22.7503 32.2239 23.247 32.2239 23.6701 32.0123L26.3277 30.6828C26.7509 30.4712 27.2476 30.4712 27.6708 30.6828L28.8293 31.262C29.8287 31.7617 31.0022 31.0354 31.0022 29.9205V7.82827C31.0022 6.35465 29.8077 5.16016 28.3341 5.16016H9.6603C8.18669 5.16016 6.99219 6.35465 6.99219 7.82827Z" stroke="#195AB4" stroke-width="1.5" stroke-linecap="round" stroke-linejoin="round"/>
</svg>
